<?xml version="1.0" encoding="utf-8"?>
<!-- Generator: Adobe Illustrator 16.0.0, SVG Export Plug-In . SVG Version: 6.00 Build 0)  -->
<!DOCTYPE svg PUBLIC "-//W3C//DTD SVG 1.1//EN" "http://www.w3.org/Graphics/SVG/1.1/DTD/svg11.dtd">
<svg version="1.1" id="Capa_1" xmlns="http://www.w3.org/2000/svg" xmlns:xlink="http://www.w3.org/1999/xlink" x="0px" y="0px"
	 width="340px" height="727.833px" viewBox="0 0 340 727.833" enable-background="new 0 0 340 727.833" xml:space="preserve">
<path fill="#FFFFFF" stroke="#A5A5A5" stroke-miterlimit="10" d="M274.521,258.093c-1.109,0-1.397,0.003-2.508,0.003
	c-4.717-0.006-9.021,0.019-13.738,0.01c-5.26-0.008-10.121,1.519-14.586-1.855c-8.617-6.509-11.789-19.417-24.453-19.417
	c-0.008,0-44.139,0-44.139,0h-1.465c0,0-44.131,0-44.141,0c-12.662,0-16.04,12.909-24.657,19.417
	c-4.465,3.375-9.533,2.371-14.792,2.379c-4.716,0.008-9.433-0.278-14.148-0.272c-1.11,0-3.442-0.134-4.552-0.134
	c-20.14,0-37.842,16.292-37.842,36.362v386.829c0,20.07,18.925,40.418,39.065,40.418h101.067h1.465h101.066
	c20.139,0,33.336-20.348,33.336-40.418V294.586C309.5,274.515,294.663,258.093,274.521,258.093z M206.5,251.585
	c0,2.788-0.784,3.248-4.12,3.248h-56.032c-3.334,0-7.849-0.46-7.849-3.248v-4.502c0-2.787,4.514-2.25,7.849-2.25h56.032
	c3.335,0,4.12-0.537,4.12,2.25V251.585z"/>
<linearGradient id="SVGID_1_" gradientUnits="userSpaceOnUse" x1="174" y1="477.4995" x2="174" y2="739.4995" gradientTransform="matrix(1 0 0 -1 0 728.833)">
	<stop  offset="0" style="stop-color:#BE2323"/>
	<stop  offset="0.3885" style="stop-color:#BA1919"/>
	<stop  offset="1" style="stop-color:#AF0000"/>
</linearGradient>
<rect x="154" y="-10.667" fill="url(#SVGID_1_)" width="40" height="262"/>
<path fill="#232323" d="M187.545,211.333c0-6-5.902-13.137-13.184-13.137c-7.28,0-13.183,7.137-13.183,13.137H153v32h43v-32H187.545
	z"/>
<g>
	<g>
		<path fill="#AF0000" d="M121.453,377.891l-0.9,2.26h-3.589l5.012-12.967h3.685l4.898,12.967h-3.616l-0.834-2.26H121.453z
			 M123.807,371.188h-0.035l-1.397,4.131h2.819L123.807,371.188z"/>
		<path fill="#AF0000" d="M141.675,367.184v7.098c0,1.621-0.067,3.225-1.325,4.451c-1.063,1.027-2.713,1.393-4.197,1.393
			c-1.47,0-3.136-0.363-4.195-1.393c-1.255-1.227-1.32-2.83-1.32-4.451v-7.098h3.287v6.645c0,1.635,0.118,3.424,2.228,3.424
			c2.113,0,2.233-1.789,2.233-3.424v-6.645H141.675L141.675,367.184z"/>
		<polygon fill="#AF0000" points="148.855,380.151 145.479,380.151 145.479,370.045 142.679,370.045 142.679,367.184 
			151.654,367.184 151.654,370.045 148.855,370.045 		"/>
		<path fill="#AF0000" d="M166.205,373.403c0,3.949-2.841,6.734-6.773,6.734c-3.938,0-6.776-2.785-6.776-6.734
			c0-3.691,3.247-6.285,6.776-6.285C162.95,367.118,166.205,369.711,166.205,373.403 M155.973,373.42
			c0,2.104,1.56,3.639,3.458,3.639c1.902,0,3.455-1.535,3.455-3.639c0-1.684-1.553-3.219-3.455-3.219
			C157.533,370.202,155.973,371.737,155.973,373.42 M159.042,366.776l-1.322-0.953l2.289-2.782l1.798,1.293L159.042,366.776z"/>
		<polygon fill="#AF0000" points="167.207,367.184 170.591,367.184 176.777,375.11 176.809,375.11 176.809,367.184 180.193,367.184 
			180.193,380.151 176.809,380.151 170.618,372.208 170.591,372.208 170.591,380.151 167.207,380.151 		"/>
		<path fill="#AF0000" d="M195.171,373.403c0,3.939-2.841,6.715-6.769,6.715c-3.914,0-6.744-2.775-6.744-6.715
			c0-3.68,3.234-6.266,6.744-6.266C191.93,367.137,195.171,369.723,195.171,373.403 M184.961,373.42
			c0,2.092,1.559,3.623,3.441,3.623c1.902,0,3.464-1.531,3.464-3.623c0-1.678-1.562-3.213-3.464-3.213
			C186.52,370.208,184.961,371.743,184.961,373.42"/>
		<polygon fill="#AF0000" points="197.915,367.184 201.246,367.184 203.879,374.108 206.676,367.184 210.034,367.184 
			212.003,380.151 208.625,380.151 207.678,372.686 207.639,372.686 204.52,380.151 203.174,380.151 200.188,372.686 
			200.154,372.686 199.074,380.151 195.714,380.151 		"/>
		<path fill="#AF0000" d="M217.496,377.891l-0.9,2.26h-3.584l4.993-12.967h3.698l4.9,12.967h-3.613l-0.84-2.26H217.496z
			 M219.863,371.188h-0.041l-1.396,4.131h2.81L219.863,371.188z"/>
		<path fill="#AF0000" d="M138.058,393.108h-0.03c-0.514,0.746-1.319,1.246-2.244,1.246c-2.039,0-3.163-1.668-3.163-3.555
			c0-1.801,1.198-3.439,3.1-3.439c0.988,0,1.78,0.5,2.307,1.291h0.03v-5.352h1.266v10.832h-1.266V393.108L138.058,393.108z
			 M138.13,390.84c0-1.273-0.778-2.363-2.152-2.363c-1.304,0-2.09,1.145-2.09,2.363c0,1.244,0.751,2.393,2.09,2.393
			C137.364,393.231,138.13,392.135,138.13,390.84"/>
		<path fill="#AF0000" d="M141.734,391.059c0.021,1.115,0.779,2.174,1.995,2.174c0.978,0,1.489-0.49,1.966-1.275l1.073,0.598
			c-0.615,1.141-1.769,1.801-3.055,1.801c-2.016,0-3.254-1.516-3.254-3.457c0-2.021,1.092-3.539,3.227-3.539
			c2.102,0,3.082,1.533,3.082,3.498v0.201H141.734z M145.504,390.092c-0.159-0.977-0.798-1.645-1.818-1.645
			c-0.988,0-1.719,0.711-1.88,1.645H145.504z"/>
		<path fill="#AF0000" d="M162.476,388.825c0,3.158-2.494,5.531-5.573,5.531c-3.075,0-5.568-2.373-5.568-5.531
			c0-3.027,2.514-5.525,5.568-5.525C159.951,383.299,162.476,385.795,162.476,388.825 M161.155,388.825
			c0-2.328-1.754-4.279-4.252-4.279c-2.496,0-4.247,1.951-4.247,4.279c0,2.426,1.944,4.299,4.247,4.299
			C159.206,393.124,161.155,391.25,161.155,388.825"/>
		<path fill="#AF0000" d="M168.474,389.415c-0.5-0.568-1.128-0.877-1.894-0.877c-1.237,0-2.202,1.1-2.202,2.303
			c0,1.346,0.949,2.334,2.292,2.334c0.732,0,1.326-0.334,1.804-0.861v1.609c-0.577,0.313-1.158,0.432-1.806,0.432
			c-1.959,0-3.552-1.488-3.552-3.455c0-2.043,1.58-3.539,3.608-3.539c0.592,0,1.25,0.133,1.75,0.432V389.415L168.474,389.415z"/>
		<path fill="#AF0000" d="M174.698,389.415c-0.513-0.568-1.138-0.877-1.896-0.877c-1.24,0-2.197,1.1-2.197,2.303
			c0,1.346,0.943,2.334,2.289,2.334c0.728,0,1.317-0.334,1.803-0.861v1.609c-0.576,0.313-1.161,0.432-1.823,0.432
			c-1.948,0-3.533-1.488-3.533-3.455c0-2.043,1.568-3.539,3.608-3.539c0.587,0,1.236,0.133,1.748,0.432L174.698,389.415
			L174.698,389.415z"/>
		<path fill="#AF0000" d="M177.854,384.543c0,0.473-0.395,0.857-0.865,0.857c-0.484,0-0.879-0.387-0.879-0.857
			c0-0.5,0.395-0.887,0.879-0.887C177.459,383.659,177.854,384.043,177.854,384.543 M177.618,394.131h-1.279v-6.58h1.279V394.131z"
			/>
		<path fill="#AF0000" d="M184.575,393.108h-0.035c-0.504,0.746-1.306,1.246-2.24,1.246c-2.03,0-3.157-1.668-3.157-3.555
			c0-1.801,1.195-3.439,3.1-3.439c0.992,0,1.775,0.5,2.298,1.291h0.035v-5.361h1.265v10.842h-1.265V393.108z M184.643,390.84
			c0-1.273-0.771-2.363-2.146-2.363c-1.307,0-2.088,1.145-2.088,2.363c0,1.244,0.746,2.393,2.088,2.393
			C183.891,393.231,184.643,392.135,184.643,390.84"/>
		<path fill="#AF0000" d="M188.252,391.059c0.016,1.115,0.777,2.174,1.99,2.174c0.972,0,1.499-0.49,1.979-1.275l1.073,0.598
			c-0.627,1.141-1.786,1.801-3.063,1.801c-2.023,0-3.246-1.516-3.246-3.457c0-2.021,1.094-3.539,3.217-3.539
			c2.099,0,3.093,1.533,3.093,3.498v0.201H188.252z M192.016,390.092c-0.148-0.977-0.802-1.645-1.813-1.645
			c-0.993,0-1.722,0.711-1.875,1.645H192.016z"/>
		<path fill="#AF0000" d="M195.648,388.444h0.021c0.406-0.709,1.195-1.082,2.003-1.082c1.86,0,2.336,1.246,2.336,2.844v3.926h-1.269
			v-3.762c0-1.131-0.157-1.893-1.458-1.893c-1.633,0-1.633,1.438-1.633,2.639v3.016h-1.271v-6.58h1.271V388.444L195.648,388.444z"/>
		<polygon fill="#AF0000" points="203.214,394.131 201.938,394.131 201.938,388.729 201.246,388.729 201.246,387.551 
			201.938,387.551 201.938,385.038 203.214,385.038 203.214,387.551 204.45,387.551 204.45,388.729 203.214,388.729 		"/>
		<path fill="#AF0000" d="M205.895,391.059c0.019,1.115,0.782,2.174,1.998,2.174c0.973,0,1.496-0.49,1.976-1.275l1.065,0.598
			c-0.615,1.141-1.775,1.801-3.06,1.801c-2.009,0-3.242-1.516-3.242-3.457c0-2.021,1.081-3.539,3.224-3.539
			c2.1,0,3.078,1.533,3.078,3.498v0.201H205.895z M209.659,390.092c-0.146-0.977-0.796-1.645-1.806-1.645
			c-0.996,0-1.729,0.711-1.885,1.645H209.659z"/>
		<path fill="#AF0000" d="M138.386,351.102v6.255c0,1.729,0.518,3.333,2.564,3.333c2.052,0,2.573-1.605,2.573-3.333v-6.255h1.319
			v6.709c0,2.326-1.444,4.11-3.892,4.11c-2.435,0-3.89-1.784-3.89-4.11v-6.709H138.386z"/>
		<path fill="#AF0000" d="M147.812,356.001h0.025c0.405-0.709,1.197-1.076,1.989-1.076c1.868,0,2.343,1.249,2.343,2.843v3.929
			h-1.271v-3.758c0-1.13-0.148-1.893-1.45-1.893c-1.636,0-1.636,1.436-1.636,2.622v3.028h-1.271v-6.579h1.271V356.001z"/>
		<path fill="#AF0000" d="M155.707,352.112c0,0.472-0.391,0.852-0.867,0.852c-0.486,0-0.881-0.38-0.881-0.852
			c0-0.499,0.395-0.886,0.881-0.886C155.315,351.227,155.707,351.613,155.707,352.112 M155.469,361.696h-1.26v-6.579h1.26V361.696z"
			/>
		<polygon fill="#AF0000" points="159.761,359.224 161.665,355.118 163.091,355.118 159.761,361.921 156.442,355.118 
			157.865,355.118 		"/>
		<path fill="#AF0000" d="M164.546,358.624c0.016,1.129,0.775,2.186,1.989,2.186c0.97,0,1.494-0.497,1.971-1.292l1.076,0.603
			c-0.624,1.138-1.782,1.801-3.065,1.801c-2.006,0-3.246-1.521-3.246-3.46c0-2.014,1.094-3.536,3.213-3.536
			c2.104,0,3.098,1.542,3.098,3.5v0.2L164.546,358.624L164.546,358.624z M168.311,357.667c-0.158-0.987-0.806-1.65-1.826-1.65
			c-0.977,0-1.713,0.709-1.872,1.65H168.311z"/>
		<path fill="#AF0000" d="M172.021,356.189h0.041c0.316-0.774,0.965-1.266,1.804-1.266c0.375,0,0.737,0.121,1.045,0.322
			l-0.573,1.149c-0.229-0.193-0.486-0.264-0.775-0.264c-1.371,0-1.541,1.269-1.541,2.327v3.235h-1.264v-6.579h1.264V356.189z"/>
		<path fill="#AF0000" d="M178.271,356.627c-0.154-0.329-0.479-0.581-0.846-0.581c-0.353,0-0.691,0.279-0.691,0.65
			c0,0.569,0.762,0.831,1.537,1.181c0.776,0.345,1.519,0.827,1.519,1.876c0,1.243-1.038,2.167-2.261,2.167
			c-0.959,0-1.938-0.546-2.289-1.471l1.078-0.494c0.275,0.494,0.599,0.846,1.211,0.846c0.529,0,1.003-0.363,1.003-0.93
			c0-0.355-0.168-0.53-0.474-0.718l-1.246-0.659c-0.725-0.394-1.268-0.765-1.268-1.653c0-1.071,0.885-1.917,1.951-1.917
			c0.807,0,1.449,0.431,1.809,1.15L178.271,356.627z"/>
		<path fill="#AF0000" d="M182.833,352.112c0,0.472-0.399,0.852-0.874,0.852c-0.486,0-0.885-0.38-0.885-0.852
			c0-0.499,0.398-0.886,0.885-0.886C182.434,351.227,182.833,351.613,182.833,352.112 M182.594,361.696h-1.275v-6.579h1.275V361.696
			z"/>
		<path fill="#AF0000" d="M189.55,360.676h-0.032c-0.502,0.745-1.311,1.245-2.246,1.245c-2.027,0-3.154-1.665-3.154-3.556
			c0-1.792,1.195-3.44,3.105-3.44c0.984,0,1.769,0.503,2.295,1.294h0.032v-5.133h1.265v10.61h-1.265V360.676L189.55,360.676z
			 M189.613,358.41c0-1.281-0.771-2.364-2.145-2.364c-1.308,0-2.08,1.138-2.08,2.364c0,1.244,0.746,2.399,2.08,2.399
			C188.861,360.81,189.613,359.697,189.613,358.41"/>
		<path fill="#AF0000" d="M198.658,361.696h-1.264v-1.021h-0.039c-0.5,0.745-1.293,1.245-2.246,1.245
			c-2.01,0-3.149-1.665-3.149-3.556c0-1.792,1.196-3.44,3.117-3.44c0.969,0,1.758,0.503,2.276,1.294h0.041v-1.102h1.263
			L198.658,361.696L198.658,361.696z M197.467,358.41c0-1.281-0.785-2.364-2.152-2.364c-1.306,0-2.084,1.138-2.084,2.364
			c0,1.244,0.744,2.399,2.084,2.399C196.698,360.81,197.467,359.697,197.467,358.41"/>
		<path fill="#AF0000" d="M205.229,360.676h-0.024c-0.509,0.745-1.32,1.245-2.243,1.245c-2.027,0-3.164-1.665-3.164-3.556
			c0-1.792,1.206-3.44,3.105-3.44c0.981,0,1.781,0.503,2.302,1.294h0.024v-5.133h1.271v10.61h-1.271V360.676z M205.309,358.41
			c0-1.281-0.781-2.364-2.147-2.364c-1.315,0-2.091,1.138-2.091,2.364c0,1.244,0.744,2.399,2.091,2.399
			C204.546,360.81,205.309,359.697,205.309,358.41"/>
		<path fill="#AF0000" d="M178.288,288.944v1.689c-1.909-1.077-4.106-1.689-6.45-1.689c-7.237,0-13.113,5.832-13.113,13.026
			c0,7.185,5.876,13.019,13.113,13.019c2.344,0,4.541-0.612,6.45-1.681v1.681h6.545v-26.045H178.288z M171.832,308.418
			c-3.625,0-6.559-2.917-6.559-6.512c0-3.588,2.934-6.5,6.559-6.5c3.256,0,5.938,2.353,6.456,5.442c0.045,0.346,0.09,0.7,0.09,1.058
			c0,0.368-0.044,0.714-0.09,1.065C177.77,306.052,175.088,308.418,171.832,308.418"/>
		<path fill="#AF0000" d="M171.783,318.96c-7.218,0-13.07,5.819-13.07,13.01s5.852,13.025,13.07,13.025
			c7.212,0,13.068-5.835,13.068-13.025C184.852,324.78,178.995,318.96,171.783,318.96 M171.771,338.421
			c-3.606,0-6.54-2.907-6.54-6.507c0-3.59,2.933-6.503,6.54-6.503c3.601,0,6.521,2.914,6.521,6.503
			C178.292,335.515,175.372,338.421,171.771,338.421"/>
		<path fill="#AF0000" d="M155.21,288.944v45.895c0.272,6.755,5.572,12.211,12.192,12.727h-18.277v-0.02h-1.352
			c-7.214,0-13.054-5.827-13.054-13.018v-45.584H155.21L155.21,288.944z"/>
		<path fill="#AF0000" d="M188.348,288.944v45.895c-0.267,6.755-5.565,12.211-12.188,12.727h18.282v-0.02h1.343
			c7.214,0,13.065-5.827,13.065-13.018v-45.584H188.348L188.348,288.944z"/>
	</g>
</g>
</svg>
