<?xml version="1.0" encoding="utf-8"?>
<!-- Generator: Adobe Illustrator 16.0.0, SVG Export Plug-In . SVG Version: 6.00 Build 0)  -->
<!DOCTYPE svg PUBLIC "-//W3C//DTD SVG 1.1//EN" "http://www.w3.org/Graphics/SVG/1.1/DTD/svg11.dtd">
<svg version="1.1" id="Layer_1" xmlns="http://www.w3.org/2000/svg" xmlns:xlink="http://www.w3.org/1999/xlink" x="0px" y="0px"
	 width="50px" height="50px" viewBox="0 0 50 50" enable-background="new 0 0 50 50" xml:space="preserve">
<path d="M-10.374-23.349c0.107-0.002,0.212,0.006,0.318,0.008c0.035,0,0.069-0.008,0.105-0.008H-10.374z"/>
<path d="M38.806,22.715H23.285c-0.108-0.2-0.222-0.395-0.348-0.584c-1.364-2.053-3.698-3.406-6.348-3.406
	c-4.206,0-7.617,3.41-7.617,7.617s3.411,7.616,7.617,7.616c2.763,0,5.182-1.471,6.517-3.671h3.526l2.963-2.473l1.813,1.791
	l1.858-1.791l1.701,1.734l2.018-1.769l1.858,1.712l2.977-3.559L38.806,22.715z M13.688,28.349c-1.109,0-2.008-0.899-2.008-2.007
	c0-1.109,0.898-2.008,2.008-2.008c0.698,0,1.313,0.356,1.672,0.898c0.212,0.318,0.335,0.7,0.335,1.11
	C15.695,27.449,14.796,28.349,13.688,28.349z"/>
</svg>
