<?xml version="1.0" encoding="utf-8"?>
<!-- Generator: Adobe Illustrator 16.0.0, SVG Export Plug-In . SVG Version: 6.00 Build 0)  -->
<!DOCTYPE svg PUBLIC "-//W3C//DTD SVG 1.1//EN" "http://www.w3.org/Graphics/SVG/1.1/DTD/svg11.dtd">

<svg class="userNameIconPath" version="1.1" id="Layer_1" xmlns="http://www.w3.org/2000/svg" xmlns:xlink="http://www.w3.org/1999/xlink" x="0px" y="0px"
	 width="50px" height="50px" viewBox="0 0 50 50" enable-background="new 0 0 50 50" xml:space="preserve">
<path class="userNameIconPath" d="M-10.374-23.349c0.107-0.002,0.212,0.006,0.318,0.008c0.035,0,0.069-0.008,0.105-0.008H-10.374z"/>
<g>
	<path class="userNameIconPath" d="M39.307,37.649c0-5.686-3.916-8.023-9.371-8.758l-3.139,6.146l-0.498-3.998l0.777-0.635h-1.685v0.01h-1.674l0.777,0.635
		l-0.498,3.998l-3.139-6.145c-5.455,0.734-9.371,3.072-9.371,8.758h13.915v-0.011H39.307z"/>
	<path class="userNameIconPath" d="M19.571,21.939c0.907,3.332,3.598,5.795,5.831,5.973v-0.013c2.231-0.184,4.915-2.644,5.821-5.97
		c0.424,0.025,0.85-0.475,0.967-1.17c0.123-0.727-0.133-1.373-0.572-1.449c-0.029-0.004-0.057,0.014-0.084,0.014
		c-0.127-5.604-2.789-7.578-6.142-7.664v0.011c-3.348,0.09-6.004,2.065-6.131,7.664c-0.027,0-0.055-0.018-0.084-0.014
		c-0.439,0.076-0.695,0.722-0.572,1.449C18.721,21.464,19.147,21.964,19.571,21.939z"/>
</g>
</svg>
